<?xml version="1.0" encoding="UTF-8" standalone="no"?>
<!-- Created with Inkscape (http://www.inkscape.org/) -->

<svg
   width="483.76562"
   height="483.76562"
   viewBox="0 0 483.76562 483.76562"
   version="1.1"
   id="svg1"
   xml:space="preserve"
   inkscape:version="1.4.3 (0d15f75042, 2025-12-25)"
   sodipodi:docname="Bh-logo.svg"
   inkscape:export-filename="Proyecto_B&amp;H/lOGO3.svg"
   inkscape:export-xdpi="96"
   inkscape:export-ydpi="96"
   xmlns:inkscape="http://www.inkscape.org/namespaces/inkscape"
   xmlns:sodipodi="http://sodipodi.sourceforge.net/DTD/sodipodi-0.dtd"
   xmlns:xlink="http://www.w3.org/1999/xlink"
   xmlns="http://www.w3.org/2000/svg"
   xmlns:svg="http://www.w3.org/2000/svg"><sodipodi:namedview
     id="namedview1"
     pagecolor="#ffffff"
     bordercolor="#000000"
     borderopacity="0.25"
     inkscape:showpageshadow="2"
     inkscape:pageopacity="0.0"
     inkscape:pagecheckerboard="0"
     inkscape:deskcolor="#d1d1d1"
     inkscape:document-units="px"
     inkscape:zoom="1.0625"
     inkscape:cx="256"
     inkscape:cy="255.52941"
     inkscape:window-width="1536"
     inkscape:window-height="795"
     inkscape:window-x="0"
     inkscape:window-y="0"
     inkscape:window-maximized="1"
     inkscape:current-layer="svg1"><inkscape:page
       x="0"
       y="0"
       width="483.76562"
       height="483.76562"
       id="page1"
       margin="0"
       bleed="0" /></sodipodi:namedview><defs
     id="defs1"><linearGradient
       id="linearGradient4"
       inkscape:collect="always"><stop
         style="stop-color:#477691;stop-opacity:1;"
         offset="0"
         id="stop4" /><stop
         style="stop-color:#2e405b;stop-opacity:1;"
         offset="0.84884894"
         id="stop5" /></linearGradient><radialGradient
       inkscape:collect="always"
       xlink:href="#linearGradient4"
       id="radialGradient5"
       cx="256"
       cy="256"
       fx="256"
       fy="256"
       r="241.88235"
       gradientUnits="userSpaceOnUse" /></defs><ellipse
     style="fill:#ffffff;fill-opacity:1;stroke-width:11.2208"
     id="path2"
     cx="243.29413"
     cy="242.82352"
     rx="235.76471"
     ry="219.29413" /><g
     inkscape:label="Capa 1"
     inkscape:groupmode="layer"
     id="layer1"
     transform="translate(-14.117188,-14.117188)"><path
       id="path1"
       style="fill:url(#radialGradient5);stroke-width:9.8"
       d="M 256,14.117188 A 241.88235,241.88235 0 0 0 14.117188,256 241.88235,241.88235 0 0 0 256,497.88281 241.88235,241.88235 0 0 0 497.88281,256 241.88235,241.88235 0 0 0 256,14.117188 Z M 104.41797,173.29492 c 17.9063,0 31.33591,4.21111 40.28906,12.63477 9.11895,8.2705 13.67774,18.45525 13.67774,30.55469 0,15.46889 -7.79184,26.57357 -23.37696,33.3125 v 0.91992 c 21.38808,5.66682 32.08203,19.37274 32.08203,41.12109 0,29.71253 -18.98318,44.57031 -56.95117,44.57031 H 79.050781 v -20.21679 h 30.837889 c 11.44014,0 19.81357,-2.14519 25.11914,-6.4336 5.30557,-4.2884 7.95899,-11.18002 7.95899,-20.67578 0,-8.2705 -2.90211,-14.62679 -8.70508,-19.06836 -5.63717,-4.44156 -13.34676,-6.66211 -23.12891,-6.66211 H 86.511719 V 244.2832 h 15.916011 c 8.95315,0 16.5805,-2.22054 22.88086,-6.66211 6.46617,-4.59472 9.69922,-10.72103 9.69922,-18.3789 0,-7.35156 -2.48696,-13.47787 -7.46093,-18.37891 -4.80818,-4.90104 -12.68422,-7.35156 -23.62696,-7.35156 -9.947942,0 -18.070727,2.91049 -24.371092,8.73047 -6.300365,5.66682 -9.451172,14.01368 -9.451172,25.04101 v 109.125 H 46.96875 V 226.82422 c 0,-15.77521 5.471324,-28.64047 16.414062,-38.5957 11.108538,-9.95523 24.786848,-14.9336 41.035158,-14.9336 z m 147.23047,0 c 30.50703,0 46.4236,12.78795 47.75,38.36524 h -23.62696 c -1.49219,-11.94628 -10.61171,-17.99528 -27.35742,-18.14844 -18.2379,0 -27.35547,7.04428 -27.35547,21.13476 0,10.26155 3.39755,17.23048 10.19532,20.90625 6.79776,3.52262 14.59155,5.28516 23.3789,5.28516 h 64.41211 v 20.2168 h -13.92773 v 29.63476 c -0.4974,9.49576 -2.40277,17.22999 -5.71875,23.20313 -3.15018,5.97314 -6.71614,10.49154 -10.69532,13.55469 -3.97917,3.06314 -8.70441,5.51367 -14.17578,7.35156 -5.47137,1.83789 -10.1124,2.91048 -13.92578,3.21679 -3.81338,0.45948 -7.79252,0.68946 -11.9375,0.68946 -20.06169,0 -35.14993,-5.36102 -45.26367,-16.08203 -7.62676,-7.81103 -11.43945,-18.45575 -11.43945,-31.9336 0,-9.3426 2.65146,-17.61215 7.95703,-24.81054 5.47137,-7.1984 13.59611,-12.17676 24.37305,-14.9336 v -0.91797 c -17.74051,-5.66682 -26.61133,-18.45672 -26.61133,-38.36718 0,-11.33365 3.89689,-20.44581 11.68945,-27.33789 5.30557,-4.59473 11.27429,-7.58057 17.90625,-8.95899 6.63196,-1.37842 14.7567,-2.06836 24.37305,-2.06836 z m 91.02344,2.29688 h 23.37695 v 67.54297 H 441.6543 V 175.5918 h 23.37695 V 336.4082 H 441.6543 v -73.05664 h -75.60547 v 73.05664 h -23.37695 z m -85.05469,85.46289 c -14.42452,0 -25.11847,2.06787 -32.08203,6.20312 -6.79777,4.13525 -10.19727,11.40952 -10.19727,21.82422 0,9.80207 2.98436,17.15365 8.95313,22.05469 5.96876,4.90104 14.59089,7.35156 25.86523,7.35156 8.62155,0 15.83375,-2.14519 21.63672,-6.43359 5.96877,-4.28841 9.28407,-11.94533 9.94726,-22.97266 h 0.24805 v -28.02734 z" /></g></svg>
