<?xml version="1.0" encoding="UTF-8" standalone="no"?>
<!-- Created with Inkscape (http://www.inkscape.org/) -->

<svg
   width="512"
   height="512"
   viewBox="0 0 512 512"
   version="1.1"
   id="svg1"
   xml:space="preserve"
   inkscape:version="1.4.3 (0d15f75042, 2025-12-25)"
   sodipodi:docname="LOGOuser512.svg"
   inkscape:export-filename="MH_512.png"
   inkscape:export-xdpi="96"
   inkscape:export-ydpi="96"
   xmlns:inkscape="http://www.inkscape.org/namespaces/inkscape"
   xmlns:sodipodi="http://sodipodi.sourceforge.net/DTD/sodipodi-0.dtd"
   xmlns="http://www.w3.org/2000/svg"
   xmlns:svg="http://www.w3.org/2000/svg"><sodipodi:namedview
     id="namedview1"
     pagecolor="#ffffff"
     bordercolor="#000000"
     borderopacity="0.25"
     inkscape:showpageshadow="2"
     inkscape:pageopacity="0.0"
     inkscape:pagecheckerboard="0"
     inkscape:deskcolor="#d1d1d1"
     inkscape:document-units="px"
     inkscape:zoom="0.33"
     inkscape:rotation="1"
     inkscape:cx="471.63088"
     inkscape:cy="453.95926"
     inkscape:window-width="1536"
     inkscape:window-height="795"
     inkscape:window-x="0"
     inkscape:window-y="0"
     inkscape:window-maximized="1"
     inkscape:current-layer="svg1" /><defs
     id="defs1"><rect
       x="169.69415"
       y="664.88165"
       width="713.81982"
       height="231.12572"
       id="rect11" /></defs><path
     d="M 498.21135,346.64689 V 439.5503 H 394.98517 v 76.50058 h 103.22618 v 217.30223 h 83.22591 V 516.05088 H 685.01482 V 439.5503 H 581.43727 v -92.90341 z"
     style="display:none;opacity:1;fill:#47ffff;fill-opacity:1;fill-rule:nonzero;stroke:none;stroke-width:0.840666;stroke-opacity:1"
     id="cruz08676" /><g
     id="g4"
     style="display:inline;stroke:#000000;stroke-width:2.33556;stroke-dasharray:none;stroke-opacity:1"
     transform="matrix(0.4074227,0,0,0.4074227,35.99174,81.112295)"><g
       id="g6"><circle
         style="fill:#ffffff;fill-opacity:1;stroke:none;stroke-width:5.35387;stroke-opacity:1"
         id="path6"
         cx="540"
         cy="540"
         r="500.4931"
         transform="matrix(1.1677787,0,0,1.1677787,-90.600493,-201.34679)" /><g
         id="libro00223"
         transform="matrix(1.333689,0,0,1.333689,-100.92347,-221.32615)"
         style="display:inline;stroke:#000000;stroke-width:2.6268;stroke-dasharray:none;stroke-opacity:1"><path
           d="m 708.49043,311.95233 c -66.6902,-0.62189 -132.93357,5.36363 -196.85618,35.17763 v 49.43701 h 77.66288 v 57.3597 h -77.66288 v 152.86254 c 140.43296,-28.27097 270.61687,-45.85356 313.83669,5.27496 L 775.2607,314.13876 c -22.25975,-1.03789 -44.54021,-1.97913 -66.77027,-2.18643 z"
           style="display:inline;fill:#ffd600;stroke:#000000;stroke-width:2.6268;stroke-dasharray:none;stroke-opacity:1"
           id="path7" /><path
           d="M 449.23097,607.50093 V 453.92667 H 371.8317 v -57.3597 h 77.39927 V 347.75089 C 364.08015,308.12702 274.81541,310.73543 185.86812,314.8827 l -50.21024,297.92541 c 43.20339,-51.10907 173.21378,-33.55926 313.57309,-5.30718 z"
           style="display:inline;fill:#50b0d1;stroke:#000000;stroke-width:2.6268;stroke-dasharray:none;stroke-opacity:1"
           id="path8" /><path
           d="M 512.15706,609.97147 C 684.91674,577.4434 709.86491,542.94675 769.18615,557.95116 l -48.2303,-290.55189 c -66.49286,-2.91688 -147.65129,30.64852 -208.79879,71.89001 v 57.27769 h 77.66288 v 57.3597 h -77.66288 z"
           style="display:inline;fill:#50b0d1;stroke:#000000;stroke-width:2.6268;stroke-dasharray:none;stroke-opacity:1"
           id="path4" /><path
           d="m 239.44074,267.39927 -48.22883,290.55336 c 59.49425,-15.04818 84.4135,19.69342 258.54334,52.3044 V 453.92667 h -77.39928 v -57.3597 h 77.39928 V 340.31586 C 388.43788,298.60652 306.48439,264.45822 239.44074,267.39927 Z"
           style="display:inline;fill:#ffd600;stroke:#000000;stroke-width:2.6268;stroke-dasharray:none;stroke-opacity:1"
           id="path5" /></g><text
         xml:space="preserve"
         id="text11"
         style="font-size:106.667px;text-align:center;writing-mode:lr-tb;direction:ltr;white-space:pre;shape-inside:url(#rect11);display:inline;opacity:1;fill:#000000;fill-opacity:1;fill-rule:nonzero;stroke:#000000;stroke-width:2.33556;stroke-dasharray:none;stroke-opacity:1"
         x="356.90991"
         y="0"
         transform="translate(10.448608,-37.994207)"><tspan
           x="176.25574"
           y="762.87058"
           id="tspan2"><tspan
             style="font-family:Outfit;-inkscape-font-specification:Outfit"
             id="tspan1">MtH PROYECT</tspan></tspan></text></g></g></svg>
